<?xml version="1.0" standalone="no"?>
<!DOCTYPE svg PUBLIC "-//W3C//DTD SVG 1.0//EN" "http://www.w3.org/TR/2001/REC-SVG-20010904/DTD/svg10.dtd">
<svg xmlns="http://www.w3.org/2000/svg" xmlns:xlink="http://www.w3.org/1999/xlink" id="body_1" width="16" height="16">

<g transform="matrix(0.5 0 0 0.5 0 0)">
	<g>
	</g>
    <path d="M17 22L17 14L13 14L13 16L15 16L15 22L12 22L12 24L20 24L20 22L17 22L17 22" stroke="none" fill="currentColor" fill-rule="nonzero" />
	<g>
	</g>
    <path d="M16 8C 15.393307 8 14.846353 8.365463 14.614181 8.925975C 14.3820095 9.486486 14.510343 10.131663 14.93934 10.56066C 15.368337 10.989657 16.013514 11.1179905 16.574024 10.885819C 17.134537 10.653647 17.5 10.106693 17.5 9.5C 17.5 8.671573 16.828426 8 16 8z" stroke="none" fill="#000000" fill-rule="nonzero" />
	<g>
	</g>
    <path d="M16 30C 10.337528 30 5.2326202 26.589008 3.0656872 21.357567C 0.89875317 16.126127 2.0965338 10.104477 6.100505 6.100505C 10.104477 2.0965338 16.126125 0.89875317 21.357567 3.0656872C 26.589008 5.2326202 30 10.337528 30 16C 30 23.731987 23.731987 30 16 30zM16 4C 11.146453 4 6.7708178 6.923706 4.9134464 11.407799C 3.0560741 15.8918915 4.0827427 21.053307 7.514719 24.485281C 10.946694 27.917257 16.108109 28.943926 20.592201 27.086554C 25.076294 25.229183 28 20.853546 28 16C 28 9.372582 22.627419 4 16 4z" stroke="none" fill="#000000" fill-rule="nonzero" />
	<g>
	</g>
    <path d="M0 0L32 0L32 32L0 32z" stroke="none" fill="none" />
</g>
</svg>