<svg xmlns="http://www.w3.org/2000/svg" viewBox="0 0 500 500"><defs><style>.a{fill:#b7295b;stroke:#ffc8d0;}.a,.b,.c,.d,.e{stroke-linecap:round;stroke-linejoin:round;stroke-width:3px;}.b{fill:#fff;}.b,.d{stroke:#212121;}.c{fill:#edaf88;stroke:#f7ceb2;}.d,.e{fill:none;}.e{stroke:#b7295b;}</style></defs><path class="a" d="M250,436,147.2,230.4C109,153.9,164.5,64,250,64h0c85.5,0,141,89.9,102.8,166.4Z"/><circle class="b" cx="250" cy="177" r="43.8" transform="translate(35.24 395.42) rotate(-80.78)"/><path class="c" d="M313,179.2a63,63,0,0,0-63-63h0a63,63,0,0,0-63,63h0a63,63,0,0,0,63,63h0a63,63,0,0,0,63-63Z"/><path class="d" d="M218.4,185.8a8.28,8.28,0,0,1,8.3-8.3h0a8.28,8.28,0,0,1,8.3,8.3"/><path class="d" d="M264.9,185.8a8.28,8.28,0,0,1,8.3-8.3h0a8.28,8.28,0,0,1,8.3,8.3"/><path class="d" d="M258.3,204.1a8.28,8.28,0,0,1-8.3,8.3h0a8.28,8.28,0,0,1-8.3-8.3"/><path class="c" d="M307.8,200.2a18.7,18.7,0,0,0,0-37.4"/><path class="e" d="M307.3,191.9a10.4,10.4,0,0,0,0-20.8"/><path class="c" d="M192.2,162.9a18.7,18.7,0,1,0,0,37.4"/><path class="e" d="M192.7,171.1a10.4,10.4,0,1,0,0,20.8"/></svg>