<svg xmlns="http://www.w3.org/2000/svg" viewBox="0 0 500 500"><defs><style>.a{fill:none;stroke:#b7295b;stroke-width:12px;}.a,.b{stroke-linecap:round;stroke-linejoin:round;}.b{fill:#d36e3c;stroke:#d36e3c;stroke-width:3px;}</style></defs><path class="a" d="M365,177.26c0,18.91-5.49,36.34-12.89,52.44C334.33,268.36,250,435.38,250,435.38S165.41,266.94,146.5,229.7c-7.8-15.37-11.5-34.08-11.5-52.44,0-62.9,51.49-113.88,115-113.88S365,114.36,365,177.26Z"/><path class="b" d="M247.45,265a10.55,10.55,0,0,0-8.18,3.28,11.14,11.14,0,0,0-2.9,7.76,10.61,10.61,0,0,0,2.93,7.56,10.73,10.73,0,0,0,8.15,3.14,11,11,0,0,0,8.13-3.11,10.41,10.41,0,0,0,3.07-7.59,10.92,10.92,0,0,0-3-7.8A10.78,10.78,0,0,0,247.45,265Z"/><path class="b" d="M282.23,130.32c-7.7-7.77-18.29-11.7-31.46-11.7-12.84,0-23.61,3.83-32,11.41s-12.78,17.88-12.94,30.5l0,2H223l0-2c.14-8.13,2.66-14.37,7.7-19.07s11.74-7,20-7,14.48,2.37,19,7.25,6.81,11.7,6.81,20.33A38,38,0,0,1,275,173.66a34.06,34.06,0,0,1-4.59,9.28c-2,2.86-6.68,7.9-13.86,15-7.56,7.45-12.38,13.79-14.71,19.39s-3.54,12.81-3.7,21.73l0,2h17.23v-2c0-12.64,4-22.38,11.84-29,10.23-9.39,17.29-17.77,21-24.91a49.93,49.93,0,0,0,5.65-23.3C293.81,148.68,289.91,138.07,282.23,130.32Z"/></svg>